<svg width="783" height="1000" viewBox="0 0 783 1000" fill="none" xmlns="http://www.w3.org/2000/svg">
<g clip-path="url(#clip0_238_16)">
<path d="M756.514 465.402C750.639 458.934 743.801 453.314 736.305 448.787C736.482 448.467 736.676 448.162 736.852 447.857C758.023 411.998 768.762 377.455 768.826 345.127C768.842 316.072 759.998 290.582 743.322 271.482C736.307 263.361 727.832 256.619 718.346 251.531C743.129 207.967 755.713 166.121 755.744 127.051C755.76 91.5469 745.15 60.4688 725.103 37.291C704.795 13.5801 675.357 0 643.992 0C615.613 0 587.49 10.6914 562.676 30.9004C540.941 48.5723 495.195 87.4023 437.279 136.568L399.205 168.881C325.689 231.225 241.418 302.447 173.84 357.904C121.801 400.635 78.543 451.678 48.75 505.564C16.4063 564.17 1.22662e-05 624.555 1.22662e-05 685.021C-0.0156127 742.342 14.8965 797.527 44.3027 849.021C97.4023 942.15 197.02 1000 304.355 1000H304.469C356.074 1000 407.184 986.389 452.287 960.674C513.156 925.955 556.109 867.158 571.182 798.408L655.035 732.998C697.348 700.799 729.803 667.25 751.568 633.252C772.389 600.666 782.949 568.596 782.967 537.904C782.998 509.816 773.576 484.037 756.514 465.402ZM697.846 598.951C682.051 623.687 656.047 652.129 616.432 682.258L554.006 730.959C551.902 697.764 542.816 664.473 525.258 633.701C491.242 574.053 428.916 540.57 364.871 540.586C333.906 540.586 302.445 548.42 273.68 564.824C224.643 592.803 197.066 644.055 197.113 696.721C197.098 722.18 203.551 748.086 217.066 771.73C240.195 812.277 282.605 835.086 326.152 835.055C347.227 835.07 368.641 829.727 388.191 818.553C421.965 799.307 440.984 763.961 440.938 727.701C440.971 710.156 436.492 692.307 427.229 676.029C421.58 666.143 408.979 662.674 399.09 668.342C389.201 673.975 385.734 686.576 391.387 696.463C397.053 706.398 399.701 717.072 399.701 727.699C399.67 749.738 388.256 771.07 367.76 782.725C354.547 790.268 340.311 793.799 326.152 793.799C296.842 793.783 268.414 778.549 252.877 751.293C243.006 733.973 238.367 715.258 238.367 696.719C238.383 658.291 258.367 621.02 294.113 600.666C316.537 587.873 340.84 581.854 364.869 581.822C414.693 581.869 463.008 607.777 489.445 654.135C505.883 682.978 513.65 714.232 513.65 745.164C513.635 809.211 480.295 871.346 420.697 905.326C383.857 926.322 343.873 936.242 304.354 936.273C222.523 936.227 143.084 893.609 99.6973 817.445C74.7832 773.752 63.7891 729.273 63.7559 685.018C63.7559 634.377 78.3633 583.844 104.561 536.379C130.756 488.93 168.574 444.676 214.305 407.18C282.268 351.398 366.617 280.084 440.439 217.482C514.182 154.928 577.617 100.898 602.867 80.3691C617.682 68.3613 631.936 63.7402 643.99 63.7402C657.025 63.8359 667.988 68.8437 676.816 78.8769C685.516 88.9551 691.969 104.799 692 127.016C692.033 152.072 683.508 185.041 660.732 223.822C637.986 262.604 601.021 307.066 545.193 354.932C536.541 362.348 535.547 375.363 542.961 384C550.377 392.637 563.395 393.648 572.031 386.232C599.496 362.686 622.754 339.73 642.48 317.467C642.754 317.275 643.105 317.211 643.379 317.002C655.129 307.369 665.98 303.951 674.439 303.951C683.074 304.064 689.654 307.082 695.195 313.277C700.637 319.521 705.035 329.746 705.066 345.094C705.1 362.652 698.951 386.715 681.984 415.43C665.02 444.164 637.346 477.455 595.354 513.426C586.717 520.84 585.707 533.859 593.123 542.494C600.539 551.146 613.557 552.158 622.209 544.74C635.965 532.928 648.277 521.32 659.498 509.893C660.156 509.523 660.91 509.41 661.553 508.945C671.375 501.689 680.477 499.09 688.07 499.074C696.754 499.139 703.768 502.27 709.387 508.32C714.924 514.42 719.178 523.875 719.227 537.873C719.258 553.285 713.689 574.184 697.846 598.951Z" fill="white"/>
<path d="M697.84 598.961C682.045 623.697 656.041 652.139 616.426 682.268L554 730.969C551.896 697.773 542.811 664.482 525.252 633.711C491.236 574.062 428.91 540.58 364.865 540.596C333.9 540.596 302.439 548.43 273.674 564.834C224.637 592.812 197.061 644.064 197.107 696.73C197.092 722.189 203.545 748.096 217.061 771.74C240.189 812.287 282.6 835.096 326.146 835.064C347.221 835.08 368.635 829.736 388.186 818.562C421.959 799.316 440.979 763.971 440.932 727.711C440.965 710.166 436.486 692.316 427.223 676.039C421.574 666.152 408.973 662.684 399.084 668.352C389.195 673.984 385.729 686.586 391.381 696.473C397.047 706.408 399.695 717.082 399.695 727.709C399.664 749.748 388.25 771.08 367.754 782.734C354.541 790.277 340.305 793.809 326.146 793.809C296.836 793.793 268.408 778.559 252.871 751.303C243 733.982 238.361 715.268 238.361 696.729C238.377 658.301 258.361 621.029 294.107 600.676C316.531 587.883 340.834 581.863 364.863 581.832C414.688 581.879 463.002 607.787 489.439 654.145C505.877 682.988 513.645 714.242 513.645 745.174C513.629 809.221 480.289 871.355 420.691 905.336C383.852 926.332 343.867 936.252 304.348 936.283C222.518 936.236 143.078 893.619 99.6914 817.455C74.7773 773.762 63.7832 729.283 63.75 685.027C63.75 634.387 78.3574 583.854 104.555 536.389C130.75 488.939 168.568 444.686 214.299 407.189C282.262 351.408 366.611 280.094 440.434 217.492C514.176 154.937 577.611 100.908 602.861 80.3789C617.676 68.3711 631.93 63.75 643.984 63.75C657.02 63.8457 667.982 68.8535 676.811 78.8867C685.51 88.9648 691.963 104.809 691.994 127.025C692.027 152.082 683.502 185.051 660.727 223.832C637.98 262.613 601.016 307.076 545.187 354.941C536.535 362.357 535.541 375.373 542.955 384.01C550.371 392.646 563.389 393.658 572.025 386.242C599.49 362.695 622.748 339.74 642.475 317.477C642.748 317.285 643.1 317.221 643.373 317.012C655.123 307.379 665.975 303.961 674.434 303.961C683.068 304.074 689.648 307.092 695.189 313.287C700.631 319.531 705.029 329.756 705.061 345.104C705.094 362.662 698.945 386.725 681.978 415.439C665.014 444.174 637.34 477.465 595.348 513.436C586.711 520.85 585.701 533.869 593.117 542.504C600.533 551.156 613.551 552.168 622.203 544.75C635.959 532.938 648.271 521.33 659.492 509.902C660.15 509.533 660.904 509.42 661.547 508.955C671.369 501.699 680.471 499.1 688.064 499.084C696.748 499.148 703.762 502.279 709.381 508.33C714.918 514.43 719.172 523.885 719.221 537.883C719.252 553.295 713.684 574.193 697.84 598.961Z" fill="url(#paint0_linear_238_16)"/>
</g>
<defs>
<linearGradient id="paint0_linear_238_16" x1="391.485" y1="63.75" x2="391.485" y2="936.283" gradientUnits="userSpaceOnUse">
<stop offset="0.1" stop-color="#A60BBE"/>
<stop offset="0.9" stop-color="#1F61B8"/>
</linearGradient>
<clipPath id="clip0_238_16">
<rect width="783" height="1000" fill="white"/>
</clipPath>
</defs>
</svg>
